<mxfile host="65bd71144e">
    <diagram id="832XBpQyjTH_2MzYd693" name="Page-1">
        <mxGraphModel dx="567" dy="324" grid="1" gridSize="10" guides="1" tooltips="1" connect="1" arrows="1" fold="1" page="1" pageScale="1" pageWidth="850" pageHeight="1100" math="0" shadow="0">
            <root>
                <mxCell id="0"/>
                <mxCell id="1" parent="0"/>
                <mxCell id="12" value="Tested" style="swimlane;" vertex="1" parent="1">
                    <mxGeometry width="200" height="200" as="geometry"/>
                </mxCell>
                <mxCell id="14" value="updateUser API&lt;br&gt;&lt;br&gt;onChange" style="text;html=1;align=center;verticalAlign=middle;resizable=0;points=[];autosize=1;strokeColor=none;fillColor=none;" vertex="1" parent="12">
                    <mxGeometry x="45" y="15" width="110" height="60" as="geometry"/>
                </mxCell>
                <mxCell id="13" value="Working" style="swimlane;" vertex="1" parent="1">
                    <mxGeometry x="200" width="200" height="200" as="geometry"/>
                </mxCell>
                <mxCell id="15" value="updateUser API&lt;br&gt;&lt;br&gt;onChange" style="text;html=1;align=center;verticalAlign=middle;resizable=0;points=[];autosize=1;strokeColor=none;fillColor=none;" vertex="1" parent="13">
                    <mxGeometry x="45" y="15" width="110" height="60" as="geometry"/>
                </mxCell>
                <mxCell id="16" value="Not Working" style="swimlane;" vertex="1" parent="1">
                    <mxGeometry x="400" width="200" height="200" as="geometry"/>
                </mxCell>
            </root>
        </mxGraphModel>
    </diagram>
</mxfile>